/* XPM */
static const char *ak_16x16_xpm[]={
/* width height ncolors chars_per_pixel */
"16 16 256 2",
/* colors */
"   c #000000",
" . c #00a700",
" X c #156d23",
" o c #43b855",
" O c #4ebb60",
" + c #00dc00",
" @ c #1d9430",
" # c #5cfe5c",
" $ c #35b149",
" % c #00f300",
" & c #20fb20",
" * c #78cc85",
" = c #7fff7f",
" - c #00bc00",
" ; c #1a852b",
" : c #3bfb3b",
" > c #0afe0a",
" , c #20a234",
" < c #63c473",
" 1 c #27a23a",
" 2 c #00cd00",
" 3 c #187827",
" 4 c #35f535",
" 5 c #4cf54c",
" 6 c #90d59b",
" 7 c #14fc14",
" 8 c #00fc00",
" 9 c #48b75a",
" 0 c #2ba73f",
" q c #1e9a32",
" w c #00b300",
" e c #6cff6c",
" r c #00e600",
" t c #1b8c2d",
" y c #6ac679",
" u c #5fbf6e",
" i c #2afd2a",
" p c #1cfe1c",
" a c #21a937",
" s c #23aa39",
" d c #87ff87",
" f c #00c400",
" g c #167325",
" h c #43fe43",
" j c #83d08f",
" k c #00d700",
" l c #62ff62",
" z c #2ffb30",
" x c #29b23a",
" c c #219e35",
" v c #71c97f",
" b c #1c902f",
" n c #36ff36",
" m c #187c28",
" M c #39b34c",
" N c #55bd65",
" B c #00ab00",
" V c #29ac3e",
" C c #51f751",
" Z c #00ea00",
" A c #89ff89",
" S c #000000",
" D c #000000",
" F c #000000",
" G c #000000",
" H c #000000",
" J c #000000",
" K c #000000",
" L c #000000",
" P c #000000",
" I c #000000",
" U c #000000",
" Y c #000000",
" T c #000000",
" R c #000000",
" E c #000000",
" W c #000000",
" Q c #000000",
" ! c #000000",
" ~ c #000000",
" ^ c #000000",
" / c #000000",
" ( c #000000",
" ) c #000000",
" _ c #000000",
" ` c #000000",
" ' c #000000",
" ] c #000000",
" [ c #000000",
" { c #000000",
" } c #000000",
" | c #000000",
".  c #000000",
".. c #000000",
".X c #000000",
".o c #000000",
".O c #000000",
".+ c #000000",
".@ c #000000",
".# c #000000",
".$ c #000000",
".% c #000000",
".& c #000000",
".* c #000000",
".= c #000000",
".- c #000000",
".; c #000000",
".: c #000000",
".> c #000000",
"., c #000000",
".< c #000000",
".1 c #000000",
".2 c #000000",
".3 c #000000",
".4 c #000000",
".5 c #000000",
".6 c #000000",
".7 c #000000",
".8 c #000000",
".9 c #000000",
".0 c #000000",
".q c #000000",
".w c #000000",
".e c #000000",
".r c #000000",
".t c #000000",
".y c #000000",
".u c #000000",
".i c #000000",
".p c #000000",
".a c #000000",
".s c #000000",
".d c #000000",
".f c #000000",
".g c #000000",
".h c #000000",
".j c #000000",
".k c #000000",
".l c #000000",
".z c #000000",
".x c #000000",
".c c #000000",
".v c #000000",
".b c #000000",
".n c #000000",
".m c #000000",
".M c #000000",
".N c #000000",
".B c #000000",
".V c #000000",
".C c #000000",
".Z c #000000",
".A c #000000",
".S c #000000",
".D c #000000",
".F c #000000",
".G c #000000",
".H c #000000",
".J c #000000",
".K c #000000",
".L c #000000",
".P c #000000",
".I c #000000",
".U c #000000",
".Y c #000000",
".T c #000000",
".R c #000000",
".E c #000000",
".W c #000000",
".Q c #000000",
".! c #000000",
".~ c #000000",
".^ c #000000",
"./ c #000000",
".( c #000000",
".) c #000000",
"._ c #000000",
".` c #000000",
".' c #000000",
".] c #000000",
".[ c #000000",
".{ c #000000",
".} c #000000",
".| c #000000",
"X  c #000000",
"X. c #000000",
"XX c #000000",
"Xo c #000000",
"XO c #000000",
"X+ c #000000",
"X@ c #000000",
"X# c #000000",
"X$ c #000000",
"X% c #000000",
"X& c #000000",
"X* c #000000",
"X= c #000000",
"X- c #000000",
"X; c #000000",
"X: c #000000",
"X> c #000000",
"X, c #000000",
"X< c #000000",
"X1 c #000000",
"X2 c #000000",
"X3 c #000000",
"X4 c #000000",
"X5 c #000000",
"X6 c #000000",
"X7 c #000000",
"X8 c #000000",
"X9 c #000000",
"X0 c #000000",
"Xq c #000000",
"Xw c #000000",
"Xe c #000000",
"Xr c #000000",
"Xt c #000000",
"Xy c #000000",
"Xu c #000000",
"Xi c #000000",
"Xp c #000000",
"Xa c #000000",
"Xs c #000000",
"Xd c #000000",
"Xf c #000000",
"Xg c #000000",
"Xh c #000000",
"Xj c #000000",
"Xk c #000000",
"Xl c #000000",
"Xz c #000000",
"Xx c #000000",
"Xc c #000000",
"Xv c #000000",
"Xb c #000000",
"Xn c #000000",
"Xm c #000000",
"XM c #000000",
"XN c #000000",
"XB c #000000",
"XV c #000000",
"XC c #000000",
"XZ c #000000",
"XA c #000000",
"XS c #000000",
"XD c #000000",
"XF c #000000",
"XG c #000000",
"XH c #000000",
"XJ c #000000",
"XK c #000000",
"XL c #000000",
"XP c #000000",
"XI c #000000",
"XU c #000000",
/* pixels */
"         >           q q       <",
"       + 7 l       m t , , q 1 y",
"       f 4 n       g ; $ o M y 0",
"       w 5 7       g t a s $ , q",
"     B - C i 8     3 @ s V , @  ",
"     B 2 : # 8   g m , s , @ @  ",
"     w + 7 A 8   m t , @ t t    ",
"     w Z 8 A p @ t q t t        ",
"   B f % 8 # l x c 9            ",
"   B 2 8 8 i = z t V s ,        ",
"   w + 8 8 7 A > g ; N O s ,    ",
"   w Z 8 8 8 d 7 X g c y j V a  ",
" . - % 8 8 8 e i 8 X b s < 6 s  ",
" B f 8 8 8 8 h h 8 X ; a s * v s",
" B 2 r + 2 2 + & 8 X m , , c u M",
" - 2 f - w B w k % X m ; ; m ; c",
};
