/* XPM */
static char *ak_24x24_xpm[]={
/* width height ncolors chars_per_pixel */
"24 24 256 2",
/* colors */
"   c #000000",
" . c #00a600",
" X c #42b754",
" o c #00bc00",
" O c #156d23",
" + c #79cd86",
" @ c #00ec00",
" # c #1d9530",
" $ c #44ff44",
" % c #15fe15",
" & c #7cff7c",
" * c #25a53a",
" = c #19822a",
" - c #5bc16b",
" ; c #5aff5a",
" : c #9bd9a5",
" > c #00d200",
" , c #36fb36",
" < c #94ff94",
" 1 c #00fd00",
" 2 c #2eaf43",
" 3 c #209f34",
" 4 c #0bfd0b",
" 5 c #1b8b2d",
" 6 c #68c677",
" 7 c #a8deb0",
" 8 c #167425",
" 9 c #4efc4e",
" 0 c #69ff69",
" q c #00cb00",
" w c #22fe22",
" e c #9cff9c",
" r c #00dc00",
" t c #85d192",
" y c #29ad3e",
" u c #00b200",
" i c #37af4a",
" p c #21a837",
" a c #1e9a32",
" s c #8aff8a",
" d c #00f400",
" f c #49ba5b",
" g c #187827",
" h c #1c902f",
" j c #1cfc1c",
" k c #00c300",
" l c #20a335",
" z c #75cb82",
" x c #23ab39",
" c c #8fd49a",
" v c #62c371",
" b c #75ff75",
" n c #b2e2ba",
" m c #00e400",
" M c #52fc52",
" N c #a2ffa2",
" B c #00ab00",
" V c #3afe3a",
" C c #3db250",
" Z c #61ff61",
" A c #34ac47",
" S c #29fd29",
" D c #83ff83",
" F c #50bd62",
" G c #187c28",
" H c #38b34c",
" J c #44b856",
" K c #34b348",
" L c #91d59c",
" P c #2db042",
" I c #69c778",
" U c #000000",
" Y c #000000",
" T c #000000",
" R c #000000",
" E c #000000",
" W c #000000",
" Q c #000000",
" ! c #000000",
" ~ c #000000",
" ^ c #000000",
" / c #000000",
" ( c #000000",
" ) c #000000",
" _ c #000000",
" ` c #000000",
" ' c #000000",
" ] c #000000",
" [ c #000000",
" { c #000000",
" } c #000000",
" | c #000000",
".  c #000000",
".. c #000000",
".X c #000000",
".o c #000000",
".O c #000000",
".+ c #000000",
".@ c #000000",
".# c #000000",
".$ c #000000",
".% c #000000",
".& c #000000",
".* c #000000",
".= c #000000",
".- c #000000",
".; c #000000",
".: c #000000",
".> c #000000",
"., c #000000",
".< c #000000",
".1 c #000000",
".2 c #000000",
".3 c #000000",
".4 c #000000",
".5 c #000000",
".6 c #000000",
".7 c #000000",
".8 c #000000",
".9 c #000000",
".0 c #000000",
".q c #000000",
".w c #000000",
".e c #000000",
".r c #000000",
".t c #000000",
".y c #000000",
".u c #000000",
".i c #000000",
".p c #000000",
".a c #000000",
".s c #000000",
".d c #000000",
".f c #000000",
".g c #000000",
".h c #000000",
".j c #000000",
".k c #000000",
".l c #000000",
".z c #000000",
".x c #000000",
".c c #000000",
".v c #000000",
".b c #000000",
".n c #000000",
".m c #000000",
".M c #000000",
".N c #000000",
".B c #000000",
".V c #000000",
".C c #000000",
".Z c #000000",
".A c #000000",
".S c #000000",
".D c #000000",
".F c #000000",
".G c #000000",
".H c #000000",
".J c #000000",
".K c #000000",
".L c #000000",
".P c #000000",
".I c #000000",
".U c #000000",
".Y c #000000",
".T c #000000",
".R c #000000",
".E c #000000",
".W c #000000",
".Q c #000000",
".! c #000000",
".~ c #000000",
".^ c #000000",
"./ c #000000",
".( c #000000",
".) c #000000",
"._ c #000000",
".` c #000000",
".' c #000000",
".] c #000000",
".[ c #000000",
".{ c #000000",
".} c #000000",
".| c #000000",
"X  c #000000",
"X. c #000000",
"XX c #000000",
"Xo c #000000",
"XO c #000000",
"X+ c #000000",
"X@ c #000000",
"X# c #000000",
"X$ c #000000",
"X% c #000000",
"X& c #000000",
"X* c #000000",
"X= c #000000",
"X- c #000000",
"X; c #000000",
"X: c #000000",
"X> c #000000",
"X, c #000000",
"X< c #000000",
"X1 c #000000",
"X2 c #000000",
"X3 c #000000",
"X4 c #000000",
"X5 c #000000",
"X6 c #000000",
"X7 c #000000",
"X8 c #000000",
"X9 c #000000",
"X0 c #000000",
"Xq c #000000",
"Xw c #000000",
"Xe c #000000",
"Xr c #000000",
"Xt c #000000",
"Xy c #000000",
"Xu c #000000",
"Xi c #000000",
"Xp c #000000",
"Xa c #000000",
"Xs c #000000",
"Xd c #000000",
"Xf c #000000",
"Xg c #000000",
"Xh c #000000",
"Xj c #000000",
"Xk c #000000",
"Xl c #000000",
"Xz c #000000",
"Xx c #000000",
"Xc c #000000",
"Xv c #000000",
"Xb c #000000",
"Xn c #000000",
"Xm c #000000",
"XM c #000000",
"XN c #000000",
"XB c #000000",
"XV c #000000",
"XC c #000000",
"XZ c #000000",
"XA c #000000",
"XS c #000000",
"XD c #000000",
"XF c #000000",
"XG c #000000",
"XH c #000000",
"XJ c #000000",
"XK c #000000",
"XL c #000000",
"XP c #000000",
"XI c #000000",
"XU c #000000",
/* pixels */
"             4               a a a             L",
"           @ 4 M             5 # a l a a # a x +",
"           r j Z             8 = l y l l l A c X",
"           q , $             8 = l - f H f t A a",
"         B k 9 S 1           8 = l x x P X * a a",
"         B k M , 1           8 5 l x x K x a a  ",
"         B q M Z 1         8 G # p x y x a #    ",
"       B u r V < 4         8 = a x x p a # #    ",
"       B o m w N w 1       g 5 l p l a h h      ",
"       B k d 4 < 9 1     g = a l a h 5 5        ",
"       u > d 1 0 D 1     = h # h 5 5            ",
"     B u r 1 1 V N j 4 h h 3 # 5 5              ",
"     B o @ 1 1 % N ; $ l a i                    ",
"     B q d 1 1 1 s & $ a # C H l l              ",
"     u > 1 1 1 1 Z s j   = h x y l l l          ",
"   B u r 1 1 1 1 V e % 1 8 8 a v 6 2 l l        ",
"   B o m 1 1 1 1 j N w 1   O = * z : F x l      ",
"   B k @ 1 1 1 1 4 < $ 1   O g a y v 7 6 x p    ",
"   B q d 1 1 1 1 1 b 0 1   O 8 h p y - n v x    ",
"   B > 1 1 1 1 1 1 M D 1     O 5 l x y I n J p  ",
" . u r 1 1 d d d d j s 4 d   O = l x x P t : y p",
" B o m @ r > q q > r j 4 d   O G a l l a l v - x",
" u k > q k o u u B u > d d   O G 5 5 5 = = 5 * x",
" k q k k           B k r @   g G = = G g 8 G 5 3",
};
