/* XPM */
static const char *ak_32x32_xpm[] = {
/* width height ncolors chars_per_pixel */
"32 32 256 2",
/* colors */
"   c #000000",
" . c #00a700",
" X c #4aba5c",
" o c #00c300",
" O c #156c23",
" + c #80d08d",
" @ c #1dfd1d",
" # c #1d9530",
" $ c #00eb00",
" % c #4cfe4c",
" & c #29ac3d",
" * c #86ff86",
" = c #1a832a",
" - c #74ff74",
" ; c #20a335",
" : c #09f509",
" > c #34fd34",
" , c #a2dcab",
" < c #6ac779",
" 1 c #9bff9b",
" 2 c #00db00",
" 3 c #36b24a",
" 4 c #00fd00",
" 5 c #00b300",
" 6 c #59ff59",
" 7 c #187727",
" 8 c #21a836",
" 9 c #b3e2ba",
" 0 c #00cc00",
" q c #5ac16b",
" w c #1b8c2d",
" e c #44fe44",
" r c #1e9b32",
" t c #96d7a0",
" y c #94ff94",
" u c #acffac",
" i c #12fd12",
" p c #41b553",
" a c #75cb83",
" s c #33ae47",
" d c #2afe2a",
" f c #00f300",
" g c #00bb00",
" h c #00e400",
" j c #167325",
" k c #00d300",
" l c #62ff62",
" z c #23a438",
" x c #23ab38",
" c c #2cae41",
" v c #1c902f",
" b c #3bfe3b",
" n c #1fa034",
" m c #0afd0a",
" M c #23fe23",
" N c #51fd51",
" B c #bfe7c5",
" V c #a3ffa3",
" C c #86d292",
" Z c #61c370",
" A c #7aff7a",
" S c #a8deb0",
" D c #3ab44d",
" F c #51bd62",
" G c #00ab00",
" H c #187c28",
" J c #2db042",
" K c #7bcd88",
" L c #71ca7f",
" P c #43b855",
" I c #8bd396",
" U c #3cb550",
" Y c #31b145",
" T c #46b958",
" R c #6dc87b",
" E c #88ff88",
" W c #98d8a2",
" Q c #187927",
" ! c #96d8a1",
" ~ c #000000",
" ^ c #000000",
" / c #000000",
" ( c #000000",
" ) c #000000",
" _ c #000000",
" ` c #000000",
" ' c #000000",
" ] c #000000",
" [ c #000000",
" { c #000000",
" } c #000000",
" | c #000000",
".  c #000000",
".. c #000000",
".X c #000000",
".o c #000000",
".O c #000000",
".+ c #000000",
".@ c #000000",
".# c #000000",
".$ c #000000",
".% c #000000",
".& c #000000",
".* c #000000",
".= c #000000",
".- c #000000",
".; c #000000",
".: c #000000",
".> c #000000",
"., c #000000",
".< c #000000",
".1 c #000000",
".2 c #000000",
".3 c #000000",
".4 c #000000",
".5 c #000000",
".6 c #000000",
".7 c #000000",
".8 c #000000",
".9 c #000000",
".0 c #000000",
".q c #000000",
".w c #000000",
".e c #000000",
".r c #000000",
".t c #000000",
".y c #000000",
".u c #000000",
".i c #000000",
".p c #000000",
".a c #000000",
".s c #000000",
".d c #000000",
".f c #000000",
".g c #000000",
".h c #000000",
".j c #000000",
".k c #000000",
".l c #000000",
".z c #000000",
".x c #000000",
".c c #000000",
".v c #000000",
".b c #000000",
".n c #000000",
".m c #000000",
".M c #000000",
".N c #000000",
".B c #000000",
".V c #000000",
".C c #000000",
".Z c #000000",
".A c #000000",
".S c #000000",
".D c #000000",
".F c #000000",
".G c #000000",
".H c #000000",
".J c #000000",
".K c #000000",
".L c #000000",
".P c #000000",
".I c #000000",
".U c #000000",
".Y c #000000",
".T c #000000",
".R c #000000",
".E c #000000",
".W c #000000",
".Q c #000000",
".! c #000000",
".~ c #000000",
".^ c #000000",
"./ c #000000",
".( c #000000",
".) c #000000",
"._ c #000000",
".` c #000000",
".' c #000000",
".] c #000000",
".[ c #000000",
".{ c #000000",
".} c #000000",
".| c #000000",
"X  c #000000",
"X. c #000000",
"XX c #000000",
"Xo c #000000",
"XO c #000000",
"X+ c #000000",
"X@ c #000000",
"X# c #000000",
"X$ c #000000",
"X% c #000000",
"X& c #000000",
"X* c #000000",
"X= c #000000",
"X- c #000000",
"X; c #000000",
"X: c #000000",
"X> c #000000",
"X, c #000000",
"X< c #000000",
"X1 c #000000",
"X2 c #000000",
"X3 c #000000",
"X4 c #000000",
"X5 c #000000",
"X6 c #000000",
"X7 c #000000",
"X8 c #000000",
"X9 c #000000",
"X0 c #000000",
"Xq c #000000",
"Xw c #000000",
"Xe c #000000",
"Xr c #000000",
"Xt c #000000",
"Xy c #000000",
"Xu c #000000",
"Xi c #000000",
"Xp c #000000",
"Xa c #000000",
"Xs c #000000",
"Xd c #000000",
"Xf c #000000",
"Xg c #000000",
"Xh c #000000",
"Xj c #000000",
"Xk c #000000",
"Xl c #000000",
"Xz c #000000",
"Xx c #000000",
"Xc c #000000",
"Xv c #000000",
"Xb c #000000",
"Xn c #000000",
"Xm c #000000",
"XM c #000000",
"XN c #000000",
"XB c #000000",
"XV c #000000",
"XC c #000000",
"XZ c #000000",
"XA c #000000",
"XS c #000000",
"XD c #000000",
"XF c #000000",
"XG c #000000",
"XH c #000000",
"XJ c #000000",
"XK c #000000",
"XL c #000000",
"XP c #000000",
"XI c #000000",
"XU c #000000",
/* pixels */
"                 m                     r r                     ,",
"               f m e                   w # r r ;         # ; c I",
"               h i 6                   H w r ; ; r r r # r s C <",
"               2 @ l                   j = r c c x ; ; ; X S F 8",
"             g 0 > N 4                 j = r D Z F U 3 q t p ; n",
"             5 0 e % 4                 j = r x & J J D X & r r  ",
"             G 0 N 6 4               j j w r x x x & D & ; r r  ",
"           G 5 k N - 4 4             j H w ; x x x Y c ; r #    ",
"           G 5 2 % y m 4             j H # ; x x c x ; r #      ",
"           G o h b u d 4             j = r 8 x x x ; r # #      ",
"         G 5 0 $ d u 6 4           j H w ; x x 8 ; # v #        ",
"         G 5 k f i 1 * m 4         j = r ; 8 ; r # v v          ",
"         G g 2 4 m - V @ 4       Q H w ; ; r # w w w            ",
"         G o h 4 4 % u e 4       H = # r # w w w                ",
"       G 5 0 $ 4 4 M V - 4 4   = w # r v w w w                  ",
"       G 5 k f 4 4 m E y M i   # # ; ; # w                      ",
"       G g 2 4 4 4 4 l u 6 e ; ; r &                            ",
"       G o h 4 4 4 4 b u - %   r r 3 a c ;                      ",
"     G 5 0 $ 4 4 4 4 @ V * > > # w r x 8 ; ; ;                  ",
"     G 5 k f 4 4 4 4 m * y M m   H = r J D x ; ; ;              ",
"     G g 2 4 4 4 4 4 4 l V d 4   j j = ; R K P x ; ;            ",
"     G o h 4 4 4 4 4 4 e u e 4     O j v & K , a J 8 ;          ",
"   . G 0 $ 4 4 4 4 4 4 M V l 4     O j = r Y < , W p 8 8        ",
"   . 5 k f 4 4 4 4 4 4 i y A 4 4     O H # 8 Y q , S T 8 8      ",
"   G 5 2 f 4 4 4 4 4 4 4 A y i 4     O 7 v ; x J q S S U 8      ",
"   G g 2 4 4 4 4 4 4 4 4 6 V M 4     O j w ; x x J Z 9 ! c 8    ",
"   G o h 4 4 4 4 4 4 4 4 b V b 4     O O = r x x x Y a B L x 8  ",
"   G 0 $ 4 f f $ $ $ $ f m A N 4       O = r 8 x x x 3 I 9 P 8  ",
" . 5 k h $ h 2 k 0 0 0 k 2 : d 4 f     O H # ; ; ; r r z Z + c 8",
" G g k k 0 o o g 5 5 5 5 g k $ 4 f     O H w # # w w w w # c Y x",
" 5 o 0 o o o           G G g k $ f     j H = = = H H Q Q H w ; 8",
" o 0 0                       0 h $     H = = =           H = # ;",
};
