/* XPM */
static char *ak_48x48_xpm[]={
/* width height ncolors chars_per_pixel */
"48 48 256 2",
/* colors */
"   c #000000",
" . c #00a600",
" X c #4bbb5d",
" o c #00c300",
" O c #156c23",
" + c #89d395",
" @ c #1cfe1c",
" # c #1e9b32",
" $ c #00eb00",
" % c #4cfe4c",
" & c #2bae40",
" * c #a3dcac",
" = c #1a832a",
" - c #6dff6d",
" ; c #0bfd0b",
" : c #6dc87c",
" > c #a3ffa3",
" , c #8aff8a",
" < c #00db00",
" 1 c #21a836",
" 2 c #32fe32",
" 3 c #00fd00",
" 4 c #1c902f",
" 5 c #00b300",
" 6 c #39b44d",
" 7 c #b2e2ba",
" 8 c #5cc16c",
" 9 c #5aff5a",
" 0 c #20a335",
" q c #187727",
" w c #00cb00",
" e c #7cff7c",
" r c #b3ffb3",
" t c #3bfe3b",
" y c #9cff9c",
" u c #1b8b2d",
" i c #95d7a0",
" p c #23ab39",
" a c #14fe14",
" s c #bce6c3",
" d c #00f300",
" f c #40b753",
" g c #24fe24",
" h c #00bb00",
" j c #64c473",
" k c #7cce8a",
" l c #29ad3e",
" z c #00e300",
" x c #00d200",
" c c #167325",
" v c #abffab",
" b c #32af46",
" n c #24a738",
" m c #53be64",
" M c #53fe53",
" N c #62ff62",
" B c #209f34",
" V c #42fe42",
" C c #1d9430",
" Z c #92ff92",
" A c #00ab00",
" S c #aadfb2",
" D c #2afe2a",
" F c #187c28",
" G c #82ff82",
" H c #8ed599",
" J c #74cb82",
" K c #c3e8c9",
" L c #68c677",
" P c #9fdba8",
" I c #3db650",
" U c #177827",
" Y c #76ff76",
" T c #34b249",
" R c #83d08f",
" E c #46b959",
" W c #78cc86",
" Q c #56c067",
" ! c #91d59c",
" ~ c #2db042",
" ^ c #aee1b6",
" / c #80cf8c",
" ( c #98d9a3",
" ) c #42b855",
" _ c #31b146",
" ` c #187827",
" ' c #69c678",
" ] c #85d191",
" [ c #96d8a1",
" { c #57c068",
" } c #000000",
" | c #000000",
".  c #000000",
".. c #000000",
".X c #000000",
".o c #000000",
".O c #000000",
".+ c #000000",
".@ c #000000",
".# c #000000",
".$ c #000000",
".% c #000000",
".& c #000000",
".* c #000000",
".= c #000000",
".- c #000000",
".; c #000000",
".: c #000000",
".> c #000000",
"., c #000000",
".< c #000000",
".1 c #000000",
".2 c #000000",
".3 c #000000",
".4 c #000000",
".5 c #000000",
".6 c #000000",
".7 c #000000",
".8 c #000000",
".9 c #000000",
".0 c #000000",
".q c #000000",
".w c #000000",
".e c #000000",
".r c #000000",
".t c #000000",
".y c #000000",
".u c #000000",
".i c #000000",
".p c #000000",
".a c #000000",
".s c #000000",
".d c #000000",
".f c #000000",
".g c #000000",
".h c #000000",
".j c #000000",
".k c #000000",
".l c #000000",
".z c #000000",
".x c #000000",
".c c #000000",
".v c #000000",
".b c #000000",
".n c #000000",
".m c #000000",
".M c #000000",
".N c #000000",
".B c #000000",
".V c #000000",
".C c #000000",
".Z c #000000",
".A c #000000",
".S c #000000",
".D c #000000",
".F c #000000",
".G c #000000",
".H c #000000",
".J c #000000",
".K c #000000",
".L c #000000",
".P c #000000",
".I c #000000",
".U c #000000",
".Y c #000000",
".T c #000000",
".R c #000000",
".E c #000000",
".W c #000000",
".Q c #000000",
".! c #000000",
".~ c #000000",
".^ c #000000",
"./ c #000000",
".( c #000000",
".) c #000000",
"._ c #000000",
".` c #000000",
".' c #000000",
".] c #000000",
".[ c #000000",
".{ c #000000",
".} c #000000",
".| c #000000",
"X  c #000000",
"X. c #000000",
"XX c #000000",
"Xo c #000000",
"XO c #000000",
"X+ c #000000",
"X@ c #000000",
"X# c #000000",
"X$ c #000000",
"X% c #000000",
"X& c #000000",
"X* c #000000",
"X= c #000000",
"X- c #000000",
"X; c #000000",
"X: c #000000",
"X> c #000000",
"X, c #000000",
"X< c #000000",
"X1 c #000000",
"X2 c #000000",
"X3 c #000000",
"X4 c #000000",
"X5 c #000000",
"X6 c #000000",
"X7 c #000000",
"X8 c #000000",
"X9 c #000000",
"X0 c #000000",
"Xq c #000000",
"Xw c #000000",
"Xe c #000000",
"Xr c #000000",
"Xt c #000000",
"Xy c #000000",
"Xu c #000000",
"Xi c #000000",
"Xp c #000000",
"Xa c #000000",
"Xs c #000000",
"Xd c #000000",
"Xf c #000000",
"Xg c #000000",
"Xh c #000000",
"Xj c #000000",
"Xk c #000000",
"Xl c #000000",
"Xz c #000000",
"Xx c #000000",
"Xc c #000000",
"Xv c #000000",
"Xb c #000000",
"Xn c #000000",
"Xm c #000000",
"XM c #000000",
"XN c #000000",
"XB c #000000",
"XV c #000000",
"XC c #000000",
"XZ c #000000",
"XA c #000000",
"XS c #000000",
"XD c #000000",
"XF c #000000",
"XG c #000000",
"XH c #000000",
"XJ c #000000",
"XK c #000000",
"XL c #000000",
"XP c #000000",
"XI c #000000",
"XU c #000000",
/* pixels */
"                         ;                                 # #                                 7",
"                       3 ; 2                               C # # #                       0 1 8 *",
"                       d ; V                               u C # # # 0 # #       C C C # 0 T ] (",
"                       $ ; M                               = u # 0 0 0 0 # # # # C C # 0 ) ! k {",
"                     x z ; N 9                             ` = C 0 1 p 0 0 0 0 0 # 0 n j 7 / & p",
"                     w z @ - %                             c = C 0 T m T p p 1 1 1 & W s k l 0  ",
"                     o < D e g                           O c = C 0 6 L j m E 6 T E k * j p 0 #  ",
"                   5 h < t , ; 3                         c c = C 0 p T I ) ) ) E 8 ' 6 0 # #    ",
"                   A h z V y ; 3                         c ` = C 0 p p p p p p T ) ~ 0 # # #    ",
"                   A h z % > a 3                         c F u # 0 p p p p p ~ I T 1 0 # #      ",
"                 A A o z M v g 3 3                       c F u # 0 p p p p & 6 T p 0 # # #      ",
"                 A 5 o z % r V 3 3                     c c = 4 B 1 p p p l _ _ p 0 # # C        ",
"                 A 5 w z % r N 3 3                     c ` = C 0 p p p p ~ & p 0 # # C          ",
"               A A h x $ t r G a 3                     c F u # 0 p p p l p 1 0 # C C C          ",
"               A 5 o < $ 2 v y 2 3 3                 c c = 4 # 1 p p p p 1 0 # C C C            ",
"               A 5 w z d g y r 9 3 3                 c F = C 0 1 p p p 0 0 # C 4 C              ",
"               A h x z d a G r e a 3               c c F u # 0 p p 1 0 # C C 4 4                ",
"             A A o x $ 3 ; N r Z D 3 3             c F = C 0 1 1 0 0 # C 4 u u                  ",
"             A 5 o < d 3 3 V > v % 3 3             ` F u # 0 0 0 # C 4 u u u                    ",
"             A h w z d 3 3 g , r - ; 3           F F u C # # # C 4 u u u                        ",
"           A A h x $ 3 3 3 a - r , @ 3 3         F = 4 # # C u u u u u                          ",
"           A 5 o < $ 3 3 3 ; % v > t 3 3       = u 4 # # C u u u u                              ",
"           A 5 w < d 3 3 3 3 2 y v N ; 3     C u 4 # 0 # C 4 u                                  ",
"           A h w z d 3 3 3 3 @ e r e 2 g     # C # 0 0 0 #                                      ",
"         A A h x $ 3 3 3 3 3 ; N r Z M V 9 1 0 # # 0                                            ",
"         A 5 o < $ 3 3 3 3 3 3 V > > - % 9   0 # # p J ( 8                                      ",
"         A 5 w < d 3 3 3 3 3 3 D Z v e % %   # C C # 6 m l 1 0                                  ",
"         A h w z d 3 3 3 3 3 3 a e r , V 2     4 u 4 0 p 1 0 0 0 0                              ",
"       A A h x $ 3 3 3 3 3 3 3 ; N r Z V a a     = = 4 0 p l p 0 0 0 0                          ",
"       A A o < $ 3 3 3 3 3 3 3 3 V > y % 3 3     F q = C 0 X 8 6 p 1 0 0 0                      ",
"       A 5 w < d 3 3 3 3 3 3 3 3 D y v 9 3 3       c c = # l J + : I p 1 0 0                    ",
"       A 5 w z d 3 3 3 3 3 3 3 3 @ G v - ; 3       O O F u # T R * i j _ 1 0 0                  ",
"     . A h x $ 3 3 3 3 3 3 3 3 3 ; - r G a 3         O c = C 0 I W P S + E p 1 0                ",
"     . A o x $ 3 3 3 3 3 3 3 3 3 3 M v Z D 3 3       O O F u # p f ' [ 7 P 8 p 1 1              ",
"     . 5 o < d 3 3 3 3 3 3 3 3 3 3 t > y V 3 3       O O ` u # 0 p 6 8 H 7 S j l 1 1            ",
"     A 5 w < d 3 3 3 3 3 3 3 3 3 3 g Z v 9 3 3         O c = C 0 p p T { + s 7 j p 1 1          ",
"     A 5 w z d 3 3 3 3 3 3 3 3 3 3 a e v - ; 3         O c F 4 0 1 p p _ Q H s ^ 8 p 1 1        ",
"     A h x z 3 3 3 3 3 3 3 3 3 3 3 ; N v G a 3         O O F u # 1 p p p T 8 ( K * X p 1        ",
"   . A h x $ 3 3 3 3 3 3 3 3 3 3 3 3 % v Z D 3 3         O q u # 0 p p p p 6 j * K ! T 1 1      ",
"   . A o < $ 3 3 3 3 3 3 3 3 3 3 3 3 2 y y t 3 d         O c = C 0 p p p p p I J 7 s J p 1      ",
"   . 5 o < d 3 3 3 3 d d d d d d 3 3 ; e y % 3 d         O c = C 0 p p p p p l X H K S X p 1    ",
"   . 5 w z d d d $ $ z z z z z z z $ d @ Y M 3 d         O c F u # 1 p 1 1 1 1 p 6 + s + _ 1    ",
"   A h x z $ $ z < < x x w w w w x x < $ a 2 3 3         O O F u # 0 0 0 0 # # # 0 n 8 ( L p 1  ",
" A A o x < < < x w o o h h h h h h h o x $ 3 3 3           O F u C # # # C C 4 4 4 C 0 b { 6 p  ",
" A 5 o w x w w o h h h 5 5 5 A A A A A h x z d d d         O F = u 4 4 u u = = = = = u # 0 p p p",
" 5 h o w o o o o                   A A A h x z d d         c F = = = = = F F F ` q ` F = C 0 1 p",
" h o w w o                               h w < $ d         ` F = = = =             c U F u C # 0",
" w w w                                       < z $         = = = =                         4 # 0",
};
