/* XPM */
static char *ak_64x64_xpm[]={
/* width height ncolors chars_per_pixel */
"64 64 256 2",
/* colors */
"   c #000000",
" . c #00a600",
" X c #54be65",
" o c #00c300",
" O c #156c23",
" + c #89d295",
" @ c #1bfe1b",
" # c #1e9b32",
" $ c #00eb00",
" % c #53ff53",
" & c #31b146",
" * c #a9deb2",
" = c #19832a",
" - c #3cfe3c",
" ; c #8cff8c",
" : c #6bff6b",
" > c #21a837",
" , c #00fd00",
" < c #6fc97d",
" 1 c #abffab",
" 2 c #00d300",
" 3 c #0bfe0b",
" 4 c #1c912f",
" 5 c #40b753",
" 6 c #00b300",
" 7 c #2bfe2b",
" 8 c #1fa034",
" 9 c #9bff9b",
" 0 c #bce5c2",
" q c #28ae3e",
" w c #177827",
" e c #00dc00",
" r c #7bff7b",
" t c #9ad9a4",
" y c #1b8c2d",
" u c #64c473",
" i c #63ff63",
" p c #b3ffb3",
" a c #4bfe4b",
" s c #00f400",
" d c #7dce89",
" f c #00cb00",
" g c #00bb00",
" h c #167325",
" j c #23ab38",
" k c #39b44d",
" l c #4abb5d",
" z c #12fe12",
" x c #00e300",
" c c #209f34",
" v c #5bff5b",
" b c #a3ffa3",
" n c #23ff23",
" m c #43fe43",
" M c #33fe33",
" N c #20a435",
" B c #b9ffb9",
" V c #73ff73",
" C c #b2e2ba",
" Z c #92ff92",
" A c #5bc16c",
" S c #a3dcac",
" D c #82ff82",
" F c #1d9430",
" G c #c1e7c7",
" H c #91d59c",
" J c #00ab00",
" K c #82d08e",
" L c #2cae41",
" P c #187727",
" I c #187c28",
" U c #68c677",
" Y c #7acd87",
" T c #35b249",
" R c #3db650",
" E c #46b959",
" W c #4ebd60",
" Q c #9edaa8",
" ! c #74cb82",
" ~ c #95d7a0",
" ^ c #c4e8ca",
" / c #2db042",
" ( c #8dd498",
" ) c #ace0b4",
" _ c #42b855",
" ` c #a7deb0",
" ' c #56c067",
" ] c #84d191",
" [ c #69c678",
" { c #71ca7f",
" } c #187827",
" | c #57c068",
".  c #c1e8c7",
".. c #000000",
".X c #000000",
".o c #000000",
".O c #000000",
".+ c #000000",
".@ c #000000",
".# c #000000",
".$ c #000000",
".% c #000000",
".& c #000000",
".* c #000000",
".= c #000000",
".- c #000000",
".; c #000000",
".: c #000000",
".> c #000000",
"., c #000000",
".< c #000000",
".1 c #000000",
".2 c #000000",
".3 c #000000",
".4 c #000000",
".5 c #000000",
".6 c #000000",
".7 c #000000",
".8 c #000000",
".9 c #000000",
".0 c #000000",
".q c #000000",
".w c #000000",
".e c #000000",
".r c #000000",
".t c #000000",
".y c #000000",
".u c #000000",
".i c #000000",
".p c #000000",
".a c #000000",
".s c #000000",
".d c #000000",
".f c #000000",
".g c #000000",
".h c #000000",
".j c #000000",
".k c #000000",
".l c #000000",
".z c #000000",
".x c #000000",
".c c #000000",
".v c #000000",
".b c #000000",
".n c #000000",
".m c #000000",
".M c #000000",
".N c #000000",
".B c #000000",
".V c #000000",
".C c #000000",
".Z c #000000",
".A c #000000",
".S c #000000",
".D c #000000",
".F c #000000",
".G c #000000",
".H c #000000",
".J c #000000",
".K c #000000",
".L c #000000",
".P c #000000",
".I c #000000",
".U c #000000",
".Y c #000000",
".T c #000000",
".R c #000000",
".E c #000000",
".W c #000000",
".Q c #000000",
".! c #000000",
".~ c #000000",
".^ c #000000",
"./ c #000000",
".( c #000000",
".) c #000000",
"._ c #000000",
".` c #000000",
".' c #000000",
".] c #000000",
".[ c #000000",
".{ c #000000",
".} c #000000",
".| c #000000",
"X  c #000000",
"X. c #000000",
"XX c #000000",
"Xo c #000000",
"XO c #000000",
"X+ c #000000",
"X@ c #000000",
"X# c #000000",
"X$ c #000000",
"X% c #000000",
"X& c #000000",
"X* c #000000",
"X= c #000000",
"X- c #000000",
"X; c #000000",
"X: c #000000",
"X> c #000000",
"X, c #000000",
"X< c #000000",
"X1 c #000000",
"X2 c #000000",
"X3 c #000000",
"X4 c #000000",
"X5 c #000000",
"X6 c #000000",
"X7 c #000000",
"X8 c #000000",
"X9 c #000000",
"X0 c #000000",
"Xq c #000000",
"Xw c #000000",
"Xe c #000000",
"Xr c #000000",
"Xt c #000000",
"Xy c #000000",
"Xu c #000000",
"Xi c #000000",
"Xp c #000000",
"Xa c #000000",
"Xs c #000000",
"Xd c #000000",
"Xf c #000000",
"Xg c #000000",
"Xh c #000000",
"Xj c #000000",
"Xk c #000000",
"Xl c #000000",
"Xz c #000000",
"Xx c #000000",
"Xc c #000000",
"Xv c #000000",
"Xb c #000000",
"Xn c #000000",
"Xm c #000000",
"XM c #000000",
"XN c #000000",
"XB c #000000",
"XV c #000000",
"XC c #000000",
"XZ c #000000",
"XA c #000000",
"XS c #000000",
"XD c #000000",
"XF c #000000",
"XG c #000000",
"XH c #000000",
"XJ c #000000",
"XK c #000000",
"XL c #000000",
"XP c #000000",
"XI c #000000",
"XU c #000000",
/* pixels */
"                                 3                                             # #                                             C",
"                               , 3 7                                           F # # #                                   > R K )",
"                               s 3 M                                           y F # # # #                           # N > l H *",
"                               s , m                                         = y 4 # # # N N # # # #     F F F F F # N N _ + H (",
"                             x $ , a i                                       I = y F # N N N N # # # # # # F F F # N j A t H u U",
"                             e $ 3 v i                                       h I y F # N > > N N N N N # # # # # N L ! C t l j  ",
"                             2 $ z i v                                       h } = 4 # N j T j > > N N N N N N N T ( G Q E > N  ",
"                           o f $ @ r % n                                     h h = y # N k u X 5 / j j > > > j l t.  ~ k N N    ",
"                           g f $ 7 ; m 3                                     h h = y # N T [ U u | l 5 T T R A H * d L N N #    ",
"                           6 f $ M 9 m ,                                     h } = y # N j _ l l W W l l l A ! d X j N # # #    ",
"                         J 6 f $ - 1 m ,                                     h I = 4 # N j j j j q q q / T _ l T j N # # #      ",
"                         J 6 f $ m p a , ,                                 h h I = F # N j j j j j j j / T _ k j N 8 # #        ",
"                         J 6 f $ a p v , ,                                 h h I y F c > j j j j j j q & R k j N N # # #        ",
"                       J J g f $ a B : , ,                                 h h = y F N > j j j j j j / k k j > N # # #          ",
"                       J J g 2 $ a B r z , ,                               h I = y # N > j j j j j L T k q > N # # F #          ",
"                       J 6 o 2 $ a B ; 7 , ,                             h h I = F # N j j j j j q & & q > N # # F F            ",
"                     J J 6 o e $ m B 9 m , ,                             h h I y F N > j j j j q / / j > N # # F F              ",
"                     J J g f e s - p 1 i 3 , ,                           h } = y # N > j j j j q q j > N # # F F F              ",
"                     J 6 o 2 x s M 1 p r n , ,                         h h I = 4 # N j j j j j j j > N # # F F F                ",
"                   J J 6 o 2 x s 7 9 B Z - , ,                         h P = y F N N j j j j j > N N # # F F F                  ",
"                   J J g f e $ s @ D B b v 3 , ,                       h I = y # N > j j j j > N N # F F 4 4                    ",
"                   J 6 g f e $ , z : p p V @ , ,                     h h I y F # N j j j > N N # # F 4 4 4                      ",
"                   J 6 o 2 x s , 3 % b B ; M , ,                     h I = y # N > j > > N N # F F 4 y 4                        ",
"                 J J g f e $ s , 3 - ; B 9 % , , ,                 h w I = F # N > > N N # # F 4 y y y                          ",
"                 J J g f e $ , , , n r p 1 : z , ,                 } I = y # N N N N # # F 4 y y y y                            ",
"                 J 6 o 2 x s , , , @ v 1 p D 7 , ,               I I I y F # N N # # F 4 y y y y                                ",
"               J J 6 o 2 x s , , , 3 m 9 B Z m , ,               I I = 4 # # # # F 4 y y y y y                                  ",
"               J J g f e $ s , , , , 7 D p b i 3 , ,           = = = y F # F F y y y y y y                                      ",
"               J J g f e $ , , , , , @ : 1 p V n , ,           = = y F # # F y y y y y                                          ",
"               J 6 o 2 x s , , , , , z % b p ; - , ,         y y y F # # # F 4 y y                                              ",
"             J J 6 o 2 x s , , , , , 3 - ; p 9 v @ z       # F F F # N N # # F                                                  ",
"             J J g f e $ s , , , , , , n r p 1 V - 7 -     N # # # N N N                                                        ",
"             J J g f e $ , , , , , , , z i 1 p D % - a     N N # #                                                              ",
"             J 6 o 2 x s , , , , , , , 3 a 9 p Z : a %     N N # # N E t S                                                      ",
"           J J 6 o 2 x s , , , , , , , , M ; p b V % %       # # # N L Y d l j >                                                ",
"           J J g f e $ , , , , , , , , , n V p 1 r % m a     # F F # N & _ j > N N N                                            ",
"           J J g f e $ , , , , , , , , , z i 1 1 ; % 7 M       y y y # N j j > N N N N N                                        ",
"           J 6 o 2 x s , , , , , , , , , 3 a 9 p Z % n @       y = = y # N j j > > N N N N N                                    ",
"         J J 6 o 2 x s , , , , , , , , , , M ; p 9 v @ 3         I I = y # > & _ & j > N N N N                                  ",
"         J J g f e $ s , , , , , , , , , , n r p b i @ , ,         h h = 4 # j A { A k j > N N N N                              ",
"         J J g f e $ , , , , , , , , , , , z i 1 1 V n , ,         h h h = F N T d H K u k j > N N N                            ",
"         J 6 o 2 x s , , , , , , , , , , , 3 % b 1 D M , ,           O h I y # N 5 ] Q t ] A & j > N N                          ",
"       . J 6 o 2 x s , , , , , , , , , , , , - Z p ; m , ,           O O h = 4 # > l K t * Q d E j > N N                        ",
"       . J 6 f e $ s , , , , , , , , , , , , 7 D p 9 % , , ,         O O h I y # N j l ! ~ ) ) H A / > > N                      ",
"       . J g f e $ , , , , , , , , , , , , , @ V 1 b i 3 , ,           O O } = F # > q l [ ( * C S < T j > >                    ",
"       . J g f e $ , , , , , , , , , , , , , z v b 1 V @ , ,           O O h = y # N j / _ u ] ` 0 * Y k j > >                  ",
"       J 6 o 2 x s , , , , , , , , , , , , , 3 a 9 1 D 7 , ,             O h I y F N > j / R A d S 0 C d R j > >                ",
"     . J 6 o 2 x s , , , , , , , , , , , , , , M ; p Z m , ,             O O I = F # > j j L k ' d *.  C d k j > >              ",
"     . J 6 o e $ s , , , , , , , , , , , , , , n r p 9 % , , ,           O O h = 4 # N j j j q k X d ) ^ C ! & > > >            ",
"     . J g f e $ , , , , , , , , , , , , , , , @ : 1 b i 3 , ,           O O h = y # N > j j j q k A ] C ^ * u q > >            ",
"     . J g f e $ , , , , , , , , , , , , , , , 3 v b 1 V @ , ,             O h I y F N > j j j j q R A ( 0 ^ t X j > >          ",
"     . 6 o 2 x s , , , , , , , , , , , , , , , 3 m 9 1 D 7 , ,             O h I = F # > j j j j j / _ [ t ^ 0 + 5 j >          ",
"     J 6 o 2 x s , , , , , , , , , , , , , , , , M ; 1 ; - , ,             O O } = 4 # N j j j j j j / l ! * ^ C ! / > >        ",
"   . J 6 o 2 x s , , , , , , , s s s s , , , , , z V 1 Z a , , s           O O h = y # N j j j j j j j T X + 0 ^ Q X j > >      ",
"   . J g f e $ s , , s s s $ $ $ $ $ $ $ $ $ s s , M ; Z % 3 , s             O h = y # N > j j j j j j j & | ~ ^ 0 K k > >      ",
"   . J g f e $ s s s $ $ x x x e e e e e e x x $ $ s M : % 3 , s             O h I y F N > > > > N N N N N j k K 0 ) [ q > >    ",
"   J 6 o 2 e $ $ $ x x e e 2 2 2 f f f f f 2 2 2 e $ s @ M 3 , s             O h I y F # N N N N N # # # # # N j A t H X j >    ",
"   J 6 o 2 e x x e 2 2 f f o o o o g g g g o o o f 2 x s , , , s             O h I = 4 # # # # # # F F F F F F # N T u u k j j  ",
"   J g f 2 2 2 2 f f o o g g g 6 6 6 6 6 6 6 6 6 g o 2 x s , , s             O h I = y F F F F 4 y y y y y y y y F N j & T j j  ",
" 6 6 g f f f f f o o g g g               J J J J J 6 g 2 x $ s s             O h I = y y y y y y = = = = = I = = y 4 # N > j j  ",
" 6 g o o f f o o o                             J J J 6 o 2 x $ s s           h h I = = = = = = I I I I } } h h } I = y F N N > >",
" g g o f f o o                                       6 g o 2 x $ s           h } I I = = = = = I             h h h I = y F # N >",
" o o f f f                                               f 2 e $ s             I I = = =                             = y 4 # N N",
" f f f                                                       x $ s             = = =                                       # # N",
};
