/* XPM */
static char *ak_72x72_xpm[]={
/* width height ncolors chars_per_pixel */
"72 72 256 2",
/* colors */
"   c #000000",
" . c #00a600",
" X c #4abb5c",
" o c #00c300",
" O c #156c23",
" + c #80cf8c",
" @ c #1bfe1b",
" # c #1d9530",
" $ c #00eb00",
" % c #4cff4c",
" & c #a3dcac",
" * c #2bae40",
" = c #84ff84",
" - c #209f34",
" ; c #19832a",
" : c #a3ffa3",
" > c #6cff6c",
" , c #00fd00",
" < c #63c473",
" 1 c #00d300",
" 2 c #32fe32",
" 3 c #0bfe0b",
" 4 c #39b44d",
" 5 c #b8e4be",
" 6 c #21a836",
" 7 c #00b300",
" 8 c #5bff5b",
" 9 c #92d69c",
" 0 c #b3ffb3",
" q c #93ff93",
" w c #187727",
" e c #00db00",
" r c #1b8b2d",
" t c #70c97e",
" y c #1e9b32",
" u c #57c068",
" i c #24fe24",
" p c #3bfe3b",
" a c #7cff7c",
" s c #28ae3e",
" d c #00f300",
" f c #00cb00",
" g c #00bb00",
" h c #ade0b5",
" j c #167325",
" k c #23ab38",
" l c #40b753",
" z c #00e300",
" x c #abffab",
" c c #13fe13",
" v c #1c902f",
" b c #9bff9b",
" n c #9bd9a5",
" m c #63ff63",
" M c #20a335",
" N c #c0e7c6",
" B c #31b145",
" V c #43fe43",
" C c #53be64",
" Z c #2bff2b",
" A c #b9ffb9",
" S c #55ff55",
" D c #1fa034",
" F c #68c677",
" G c #73ff73",
" H c #00ab00",
" J c #78cc86",
" K c #8bff8b",
" L c #89d295",
" P c #187c28",
" I c #b3e2bb",
" U c #a7deb0",
" Y c #3db651",
" T c #5bc16b",
" R c #35b249",
" E c #9edba8",
" W c #c4e9ca",
" Q c #46b959",
" ! c #4ebd60",
" ~ c #2db042",
" ^ c #6dc87c",
" / c #85d191",
" ( c #bbe5c2",
" ) c #7cce89",
" _ c #95d7a0",
" ` c #8dd498",
" ' c #75cb82",
" ] c #43b855",
" [ c #a9deb2",
" { c #6ac779",
" } c #82d08e",
" | c #187827",
".  c #96d8a1",
".. c #c1e8c7",
".X c #000000",
".o c #000000",
".O c #000000",
".+ c #000000",
".@ c #000000",
".# c #000000",
".$ c #000000",
".% c #000000",
".& c #000000",
".* c #000000",
".= c #000000",
".- c #000000",
".; c #000000",
".: c #000000",
".> c #000000",
"., c #000000",
".< c #000000",
".1 c #000000",
".2 c #000000",
".3 c #000000",
".4 c #000000",
".5 c #000000",
".6 c #000000",
".7 c #000000",
".8 c #000000",
".9 c #000000",
".0 c #000000",
".q c #000000",
".w c #000000",
".e c #000000",
".r c #000000",
".t c #000000",
".y c #000000",
".u c #000000",
".i c #000000",
".p c #000000",
".a c #000000",
".s c #000000",
".d c #000000",
".f c #000000",
".g c #000000",
".h c #000000",
".j c #000000",
".k c #000000",
".l c #000000",
".z c #000000",
".x c #000000",
".c c #000000",
".v c #000000",
".b c #000000",
".n c #000000",
".m c #000000",
".M c #000000",
".N c #000000",
".B c #000000",
".V c #000000",
".C c #000000",
".Z c #000000",
".A c #000000",
".S c #000000",
".D c #000000",
".F c #000000",
".G c #000000",
".H c #000000",
".J c #000000",
".K c #000000",
".L c #000000",
".P c #000000",
".I c #000000",
".U c #000000",
".Y c #000000",
".T c #000000",
".R c #000000",
".E c #000000",
".W c #000000",
".Q c #000000",
".! c #000000",
".~ c #000000",
".^ c #000000",
"./ c #000000",
".( c #000000",
".) c #000000",
"._ c #000000",
".` c #000000",
".' c #000000",
".] c #000000",
".[ c #000000",
".{ c #000000",
".} c #000000",
".| c #000000",
"X  c #000000",
"X. c #000000",
"XX c #000000",
"Xo c #000000",
"XO c #000000",
"X+ c #000000",
"X@ c #000000",
"X# c #000000",
"X$ c #000000",
"X% c #000000",
"X& c #000000",
"X* c #000000",
"X= c #000000",
"X- c #000000",
"X; c #000000",
"X: c #000000",
"X> c #000000",
"X, c #000000",
"X< c #000000",
"X1 c #000000",
"X2 c #000000",
"X3 c #000000",
"X4 c #000000",
"X5 c #000000",
"X6 c #000000",
"X7 c #000000",
"X8 c #000000",
"X9 c #000000",
"X0 c #000000",
"Xq c #000000",
"Xw c #000000",
"Xe c #000000",
"Xr c #000000",
"Xt c #000000",
"Xy c #000000",
"Xu c #000000",
"Xi c #000000",
"Xp c #000000",
"Xa c #000000",
"Xs c #000000",
"Xd c #000000",
"Xf c #000000",
"Xg c #000000",
"Xh c #000000",
"Xj c #000000",
"Xk c #000000",
"Xl c #000000",
"Xz c #000000",
"Xx c #000000",
"Xc c #000000",
"Xv c #000000",
"Xb c #000000",
"Xn c #000000",
"Xm c #000000",
"XM c #000000",
"XN c #000000",
"XB c #000000",
"XV c #000000",
"XC c #000000",
"XZ c #000000",
"XA c #000000",
"XS c #000000",
"XD c #000000",
"XF c #000000",
"XG c #000000",
"XH c #000000",
"XJ c #000000",
"XK c #000000",
"XL c #000000",
"XP c #000000",
"XI c #000000",
"XU c #000000",
/* pixels */
"                                     3                                                   y y                                                   I",
"                                   , 3                                                   y y y                                             u ` I",
"                                   d 3 2                                               r v # y y y y                                 M M k T.  h",
"                                   d , p                                               ; r # y y y y M M y                   # # y y M k X L n n",
"                                 z $ , V m                                             P ; r # y y M M M y y y y y y # # # # # # y M k C 9 9 J  ",
"                                 z $ , % m                                             P P r # y M M M M M M M y y y y y y y y y M * t & n < 4  ",
"                                 e $ 3 8 m                                             j P ; v y M M k 6 6 M M M M M M M D M M M 4 L ( & T k 6  ",
"                               f 1 $ 3 > m V                                           j | ; v y M k Y 4 s k 6 6 M M M M M M k Q n W [ C k M    ",
"                               o 1 $ @ a 8 2                                           j | ; r y M k T < C ] B s k k 6 6 k * T & W E X 6 M M    ",
"                               g 1 $ i K 8 c                                           j w ; r # M k T ^ F < T X ] 4 R R Q { n h / 4 M M y y    ",
"                             7 g 1 $ 2 b m , ,                                         j | ; r # M 6 4 X C C C C ! X X C < ) / < * M M y y      ",
"                             7 g 1 $ p x m , ,                                       j j P ; r y M 6 k s s ~ ~ ~ B B R l ! C Y k M M y y y      ",
"                             H g 1 $ V 0 > , ,                                       j j P ; v y M 6 k k k k k k k k ~ 4 Q 4 k M M y y y        ",
"                           H H g 1 $ V 0 G 3 ,                                       j j P r # y M 6 k k k k k k k * R l Y k 6 M y y y y        ",
"                           H H g 1 $ % A a c , ,                                     j w ; r # y M k k k k k k k s B 4 Y s 6 M y y y y          ",
"                           H 7 o 1 $ % A K @ , ,                                   j j P ; r # M M k k k k k k k ~ 4 4 ~ 6 M M y y y            ",
"                         H H 7 o 1 $ % A q 2 , ,                                   j j P ; v y M 6 k k k k k k ~ R 4 ~ k M M y y # #            ",
"                         H H g f e d % A b % , , ,                                 j j P r # y M 6 k k k k k s B B * k M M y y # #              ",
"                         H 7 g f e d V A x m c , ,                                 j | ; r # y M k k k k k s ~ ~ k k M M y y # #                ",
"                       H H 7 o 1 z d p 0 0 a Z , ,                               j j P ; r y M 6 k k k k s * s k 6 M M y y # # #                ",
"                       H H g o 1 z d 2 x A q V , , ,                             j j P r # y M 6 k k k k s k k 6 M M y y # # #                  ",
"                       H 7 g f e $ d Z b A : m 3 , ,                             j | ; r # y M 6 k k k k k k 6 M M y # # # #                    ",
"                       H 7 o f e $ , i = A x G i , ,                           j j P ; r y M 6 k k k k k 6 6 M D y # # # #                      ",
"                     H H 7 o 1 z $ , @ G 0 0 K p , , ,                         j | P r # y M 6 k k k k 6 M M y y # # v v                        ",
"                     H H g f e z d , c 8 : A b 8 3 , ,                       j j P ; r # M M k k k 6 M M M y # # v v v                          ",
"                     H 7 g f e $ d , 3 V q A x > @ , ,                       j | P r # y M 6 6 6 6 M M y y # v v r r                            ",
"                   H H 7 o 1 z $ , , , 2 a 0 0 = 2 , ,                       j P ; r # M M 6 M M M y y # # v r r r                              ",
"                   H H g o 1 z d , , , i m x A q % , , ,                   | | P r # y M M M M y y # # v r r r r                                ",
"                   H 7 g f e $ d , , , c % q A : m c , ,                   P P ; r y y M M y y # # v r r r r                                    ",
"                 H H 7 o f e $ d , , , 3 p = 0 x a Z , ,                 P P ; r # y y y y # # v r r r r r                                      ",
"                 H H 7 o 1 z $ , , , , , i > x 0 K V , , ,               P ; r v # y y # v r r r r r r                                          ",
"                 H H g f 1 z d , , , , , @ S b A b 8 3 , ,             ; ; r v # y # # r r r r r r                                              ",
"                 H 7 g f e $ d , , , , , 3 V K 0 x > i , ,           r r r v y y y # v r r r r                                                  ",
"               H H 7 o 1 e $ , , , , , , , Z a 0 0 = p , ,           v r v y y M y y # v r                                                      ",
"               H H 7 o 1 z d , , , , , , , @ m : 0 q S i c i       y # # # y M M M y y                                                          ",
"               H H g f e z d , , , , , , , c % b 0 b > p Z p     6 M y y y - M                                                                  ",
"               H 7 g f e $ d , , , , , , , 3 p K 0 x a S p %     6 M y y                                                                        ",
"             H H 7 o 1 e $ , , , , , , , , , Z G x 0 K m % S       M y y y M B / [                                                              ",
"             H H 7 o 1 z d , , , , , , , , , @ 8 : 0 b G S % 8     M y y y M s ' 9 ' ]                                                          ",
"             H H g f e z d , , , , , , , , , 3 % q 0 : a S V %       y # # y M B T ] k 6 M M                                                    ",
"             H 7 g f e $ d , , , , , , , , , 3 2 = 0 x = 8 p p         v r v y M k k 6 M M M M M                                                ",
"           H H 7 o 1 e $ , , , , , , , , , , , i G x x K 8 Z i         r r r v y M 6 k 6 M M M M M M                                            ",
"           H H 7 o 1 z d , , , , , , , , , , , @ m : 0 q 8 Z c @         ; ; ; v y M k k k 6 6 M M M M M                                        ",
"           H H g f e z d , , , , , , , , , , , 3 % b 0 b m Z , 3         P P P ; # M 6 Y C Y s k 6 M M M M                                      ",
"           H 7 g f e $ d , , , , , , , , , , , 3 p K 0 : > Z , ,           j j P r # M s < ' < X ~ k 6 M M M M                                  ",
"         H H 7 o 1 e $ , , , , , , , , , , , , , Z a x x a 2 , ,           j j j P r y M 4 ) 9 L ^ X * k 6 M M M                                ",
"         . H 7 o 1 z $ , , , , , , , , , , , , , @ > x x = V , , ,           O O j ; v y M Q / n n ` ^ ] k 6 6 M M                              ",
"         . H g o 1 z d , , , , , , , , , , , , , c S b 0 q % 3 , ,           O O j P r # M k C / n U & L T B k 6 M M                            ",
"         H H g f e $ d , , , , , , , , , , , , , 3 V q 0 b 8 c , ,             O O | ; v y M k C ).  [ h n ' ] k 6 M M                          ",
"         H 7 g f e $ d , , , , , , , , , , , , , , 2 = 0 : > @ , ,             O O j P r # M 6 * C ^ ` U I [ / C s 6 6 6                        ",
"       . H 7 o 1 e $ , , , , , , , , , , , , , , , i G x x a Z , ,             O O j P ; # y M k B X < / & I I 9 < ~ 6 6 6                      ",
"       . H 7 o 1 z d , , , , , , , , , , , , , , , c m : x K V , , ,             O O | ; r y M 6 k B ] T ) E 5 ( n < B 6 6 6                    ",
"       . H g o 1 z d , , , , , , , , , , , , , , , 3 % b 0 q S , , ,             O O j ; r # M M k k ~ Y u J E ( ( E F ~ 6 6 6                  ",
"       . H g f e $ d , , , , , , , , , , , , , , , 3 p K 0 b m c , ,             O O j P r # y M k k k ~ 4 C J E ( N E < * 6 6 6                ",
"       . 7 g f e $ d , , , , , , , , , , , , , , , , Z a x : G @ , ,               O j P ; v y M 6 k k k * 4 C J &.. N n T s 6 6                ",
"     . H 7 o 1 e $ , , , , , , , , , , , , , , , , , i > x x a 2 , ,               O O j ; r y M 6 k k k k * 4 T ) [ W ( 9 ! k 6 6              ",
"     . H 7 o 1 z $ , , , , , , , , , , , , , , , , , c 8 : x K p , , ,             O O j P r # M M k k k k k ~ Y T / I W 5 } l k 6 6            ",
"     . H g o 1 z d , , , , , , , , , , , , , , , , , 3 % b 0 q % , , ,               O j P r # y M k k k k k k ~ ] < 9 ( W h t B 6 6 6          ",
"     . H g f e z d , , , , , , , , , , , , , , , , , , p K x b 8 3 , ,               O j P ; v y M k k k k k k k B X ^ E W W n T k 6 6          ",
"     . H g f e $ d , , , , , , , , , , , , , , , , , , i a x : > @ , d               O O | ; r y M 6 k k k k k k k R C ) h W ( / ] k 6 6        ",
"     . 7 g f e $ d , , , , , d d d d d d d d d d , , , , S b : G i , ,               O O j ; r # M 6 k k k k k k k s 4 T ` ( W [ ^ ~ 6 6        ",
"   . H 7 o 1 z $ d , , d d d $ $ $ $ $ $ $ $ $ $ $ d d d c > q G 2 , , d             O O j P r # y M k k k k k k k k k B T _.. W _ C k 6 6      ",
"   . H 7 o 1 z $ d d d $ $ z z z e e e e e e e e z z z $ d c 8 m p , , d               O j P r # y M 6 6 6 6 M M M M M M k 4 + 5 I } Y k 6      ",
"   . H g f 1 z $ $ $ z z e e 1 1 1 1 f f f f f f 1 1 1 e z d 3 Z Z , , d               O j P ; v y M M M M M M y y y y y M M k T n n { B k 6    ",
"   H 7 g f e e z z e e 1 1 f f f o o o o o g o o o o f f 1 z d , , , , d               O j P ; r # y M y y y y # # # # # # y y M R { ' ! k k    ",
"   H 7 o f 1 e e 1 1 f f o o g g g g 7 7 7 7 7 7 7 7 g g o 1 z $ d , , d               O j P ; r # # y # # # v r r r r r r r # y M k 4 ] ~ k k  ",
"   7 g o f 1 1 f f o o o g g g 7 7     H H H H H H H H H 7 o 1 z $ d d d               O j P ; r r v v v r r r ; ; ; ; ; ; ; ; r # y M k k k k  ",
" 7 7 g o f f f o o o o o                           H H H H 7 o 1 e $ d d               j j P ; ; r r r r ; ; ; P P P P P P P P ; r v y M M 6 k  ",
" g g o o f o o o o                                       H 7 g o 1 z $ d               j j P ; ; ; ; ; ; ; P P P P j j j j j j j P ; r # M M 6 6",
" g o o f f f                                                 g o f e z $ d             w P P P ; ; ; ;                         j P ; ; r # y M 6",
" o f f f f                                                       f 1 z $ d             P P ; ; ; ;                                     r # y M M",
" 1 1 f                                                               z $ d               ; ; ;                                             y M M",
};
